<svg width="658" height="543" viewBox="0 0 658 543" fill="none" xmlns="http://www.w3.org/2000/svg">
<path d="M329.083 55.0025C330.06 55.0043 331.037 55.0061 332.043 55.008C348.2 55.0585 364.036 55.7744 380.021 58.315C381.108 58.4866 382.195 58.6582 383.314 58.835C421.122 65.0283 461.863 77.8766 494.021 99.315C491.654 132.957 488.998 166.577 486.288 200.193C485.545 209.414 484.811 218.636 484.086 227.858C483.567 234.455 483.039 241.051 482.504 247.647C482.188 251.543 481.876 255.439 481.575 259.336C478.425 299.959 478.425 299.959 471.333 316.44C470.99 317.262 470.647 318.084 470.293 318.931C461.617 339.284 449.637 356.78 435.021 373.315C434.331 374.116 433.642 374.916 432.931 375.741C422.312 387.868 410.813 399.494 398.021 409.315C396.521 410.495 395.023 411.676 393.525 412.858C391.899 414.136 390.273 415.413 388.646 416.69C387.872 417.298 387.098 417.906 386.301 418.533C376.299 426.315 376.299 426.315 373.021 426.315C371.845 424.898 370.731 423.428 369.646 421.94C365.869 417.049 361.727 413.31 356.883 409.54C355.564 408.503 354.288 407.413 353.021 406.315C353.021 405.655 353.021 404.995 353.021 404.315C354.375 403.161 354.375 403.161 356.283 401.881C356.983 401.403 357.684 400.924 358.406 400.431C359.166 399.918 359.926 399.406 360.708 398.878C368.576 393.454 375.855 387.625 383.021 381.315C383.733 380.703 384.444 380.09 385.177 379.46C387.143 377.764 389.085 376.045 391.021 374.315C391.98 373.46 392.939 372.606 393.927 371.725C398.922 367.237 403.813 362.744 408.126 357.581C409.642 355.768 411.185 353.999 412.759 352.237C432.722 329.732 446.69 304.138 449.011 273.768C449.133 272.26 449.133 272.26 449.258 270.721C449.526 267.408 449.785 264.094 450.044 260.78C450.233 258.423 450.423 256.066 450.612 253.709C451.113 247.483 451.606 241.256 452.097 235.029C452.583 228.883 453.076 222.736 453.568 216.59C454.15 209.322 454.73 202.053 455.307 194.784C456.254 182.858 457.213 170.933 458.202 159.011C458.296 157.871 458.39 156.732 458.487 155.558C458.933 150.173 459.381 144.789 459.834 139.405C459.992 137.497 460.151 135.589 460.309 133.68C460.381 132.829 460.454 131.977 460.529 131.1C460.908 126.486 461.092 121.945 461.021 117.315C432.053 101.885 401.4 93.1385 369.021 88.315C368.142 88.1822 367.262 88.0494 366.356 87.9127C339.201 84.038 310.023 85.069 283.021 89.315C281.415 89.5644 281.415 89.5644 279.776 89.8189C252.081 94.2785 225.588 103.09 200.357 115.284C198.021 116.315 198.021 116.315 196.021 116.315C196.163 117.812 196.163 117.812 196.308 119.338C198.509 142.641 200.507 165.957 202.335 189.292C202.547 191.997 202.76 194.703 202.973 197.409C203.904 209.221 204.832 221.034 205.742 232.848C206.224 239.105 206.713 245.36 207.211 251.615C207.471 254.885 207.726 258.156 207.974 261.427C208.249 265.041 208.536 268.655 208.826 272.268C208.941 273.839 208.941 273.839 209.058 275.442C209.653 282.633 211.081 289.37 213.021 296.315C213.212 297.006 213.403 297.697 213.599 298.41C220.295 321.677 235.096 342.849 252.376 359.588C255.021 362.315 255.021 362.315 255.021 364.315C255.681 364.315 256.341 364.315 257.021 364.315C257.021 364.975 257.021 365.635 257.021 366.315C257.681 366.315 258.341 366.315 259.021 366.315C259.021 366.975 259.021 367.635 259.021 368.315C259.681 368.315 260.341 368.315 261.021 368.315C261.021 368.975 261.021 369.635 261.021 370.315C261.681 370.315 262.341 370.315 263.021 370.315C263.021 370.975 263.021 371.635 263.021 372.315C263.574 372.546 264.127 372.776 264.697 373.014C267.657 374.671 269.764 376.772 272.208 379.128C282.647 388.918 294.258 397.201 306.08 405.229C306.945 405.819 307.811 406.409 308.703 407.017C310.808 408.452 312.914 409.884 315.021 411.315C315.023 410.748 315.026 410.18 315.028 409.595C315.087 395.782 315.163 381.969 315.257 368.156C315.301 361.476 315.341 354.797 315.367 348.117C315.393 341.671 315.434 335.227 315.484 328.782C315.501 326.321 315.512 323.861 315.519 321.4C315.528 317.957 315.556 314.515 315.589 311.072C315.587 310.052 315.586 309.032 315.584 307.981C315.667 301.774 316.336 298.096 320.771 293.503C324.103 291.744 326.304 291.802 330.021 292.315C332.991 294.105 335.446 296.165 337.021 299.315C337.091 301.022 337.105 302.732 337.083 304.44C337.074 305.35 337.065 306.26 337.056 307.198C337.039 308.246 337.039 308.246 337.021 309.315C337.985 309.31 338.949 309.305 339.943 309.299C343.508 309.281 347.073 309.27 350.638 309.26C352.183 309.255 353.728 309.248 355.274 309.24C357.49 309.227 359.707 309.222 361.923 309.217C362.618 309.212 363.313 309.207 364.029 309.202C365.693 309.202 367.358 309.253 369.021 309.315C370.021 310.315 370.021 310.315 370.154 312.897C370.151 313.963 370.149 315.029 370.146 316.128C370.149 317.186 370.151 318.244 370.154 319.335C370.021 322.315 370.021 322.315 369.021 326.315C364.071 326.315 359.121 326.315 354.021 326.315C354.021 329.615 354.021 332.915 354.021 336.315C354.681 335.985 355.341 335.655 356.021 335.315C360.357 335.176 364.682 335.272 369.021 335.315C369.021 341.255 369.021 347.195 369.021 353.315C358.461 353.315 347.901 353.315 337.021 353.315C337.351 372.785 337.681 392.255 338.021 412.315C341.651 414.295 345.281 416.275 349.021 418.315C357.347 424.59 363.301 432.746 365.646 443.065C366.985 454.672 365.211 464.479 358.037 473.96C351.474 481.629 344.091 487.341 334.021 489.315C322.217 490.222 313.565 488.418 304.021 481.315C303.215 480.717 302.41 480.119 301.58 479.503C292.967 472.139 289.795 461.669 288.646 450.753C289.098 446.606 290.2 442.834 291.462 438.866C292.069 436.097 292.001 434.937 291.021 432.315C289.509 430.811 289.509 430.811 287.556 429.581C286.843 429.093 286.131 428.606 285.396 428.103C284.633 427.596 283.87 427.088 283.083 426.565C281.518 425.493 279.954 424.419 278.392 423.342C277.635 422.823 276.878 422.303 276.099 421.768C271.898 418.831 267.967 415.58 264.021 412.315C263.166 411.633 262.312 410.951 261.431 410.249C244.91 396.999 228.981 382.088 216.021 365.315C215.236 364.347 214.451 363.379 213.642 362.381C199.506 344.801 187.81 324.231 182.021 302.315C181.796 301.475 181.57 300.635 181.338 299.769C178.381 287.47 177.695 274.948 176.716 262.37C176.509 259.798 176.301 257.227 176.092 254.655C175.599 248.558 175.115 242.461 174.634 236.363C174.053 228.998 173.461 221.635 172.869 214.272C172.229 206.323 171.591 198.374 170.959 190.425C169.863 176.676 168.745 162.93 167.586 149.187C167.468 147.784 167.35 146.381 167.232 144.978C166.672 138.324 166.107 131.669 165.538 125.015C165.337 122.636 165.136 120.257 164.935 117.878C164.841 116.805 164.748 115.731 164.652 114.625C164.222 109.5 163.915 104.458 164.021 99.315C215.207 70.4841 270.187 54.772 329.083 55.0025ZM312.646 440.378C310.084 445.008 309.358 449.083 310.021 454.315C311.92 460.217 315.003 463.792 320.021 467.315C325.452 469.125 330.118 469.016 335.271 466.628C339.575 464.231 341.937 461.32 344.271 457.003C345.757 451.678 345.675 447.179 343.521 442.128C340.998 437.671 337.837 435.057 333.021 433.315C324.436 431.921 318.108 433.334 312.646 440.378Z" fill="#00324F"/>
<path d="M245.021 111.315C258.974 111.245 272.926 111.192 286.879 111.16C293.359 111.144 299.84 111.123 306.32 111.089C312.583 111.056 318.846 111.038 325.11 111.03C327.49 111.025 329.869 111.014 332.249 110.998C354.108 110.854 373.175 112.268 391.021 126.315C391.782 126.899 392.542 127.483 393.326 128.085C407.216 139.5 415.293 156.466 417.494 174.104C419.314 193.424 415.247 213.014 403.146 228.503C401.786 230.119 400.412 231.725 399.021 233.315C398.5 233.931 397.979 234.547 397.443 235.182C385.086 248.725 366.822 255.24 348.869 256.247C337.925 256.509 326.942 255.805 316.021 255.315C316.021 243.435 316.021 231.555 316.021 219.315C333.396 219.003 333.396 219.003 338.815 218.927C350.899 218.69 361.557 217.618 371.021 209.315C378.572 200.709 380.649 191.011 380.369 179.78C379.408 170.208 375.3 161.933 368.056 155.596C358.886 148.831 348.28 147.858 337.208 148.19C325.077 148.471 313.215 147.845 301.021 147.315C301.021 221.235 301.021 295.155 301.021 371.315C297.221 369.415 293.891 367.221 290.458 364.753C289.842 364.311 289.226 363.869 288.591 363.414C282.876 359.277 277.402 354.878 272.021 350.315C271.441 349.911 270.861 349.507 270.263 349.091C265.409 345.501 265.409 345.501 264.392 342.394C264.176 340.122 264.18 337.946 264.262 335.666C264.265 334.808 264.268 333.95 264.27 333.066C264.287 330.195 264.354 327.328 264.42 324.459C264.442 322.398 264.46 320.338 264.475 318.278C264.513 313.841 264.572 309.405 264.646 304.969C264.759 297.941 264.808 290.912 264.844 283.883C264.954 263.894 265.132 243.907 265.422 223.92C265.581 212.879 265.675 201.841 265.699 190.8C265.715 184.963 265.764 179.131 265.895 173.296C267.891 146.331 267.891 146.331 257.509 122.783C254.44 120.026 251.318 117.637 247.759 115.547C246.021 114.315 246.021 114.315 245.021 111.315Z" fill="#00324F"/>
</svg>
